# xmcd
#
# Track frame offsets:
#	150
#	9715
#	33385
#	57800
#	76950
#	97925
#	120075
#	148110
#	154775
#	169400
#	176665
#	192385
#
# Disc length: 3100 seconds
#
# Revision: 3
# Processed by: cddbd v1.5.1PL2 Copyright (c) Steve Scherf et al.
# Submitted via: EasyCDDAExtractor 9.0.0.1
#
DISCID=950c1a0c
DTITLE=Def Leppard - Verizon Wireless Amphitheatre Charlotte 15-07-06 Disc 1
DYEAR=2006
DGENRE=Hard Rock
TTITLE0=Intro
TTITLE1=Let's Get Rocked
TTITLE2=Make Love Like A Man
TTITLE3=Promises
TTITLE4=Bringin' On The Heartbreak
TTITLE5=Foolin'
TTITLE6=Hysteria
TTITLE7=Intro >
TTITLE8=No Matter What
TTITLE9=Intro >
TTITLE10=Rock On
TTITLE11=Rocket
EXTD=
EXTT0=
EXTT1=
EXTT2=
EXTT3=
EXTT4=
EXTT5=
EXTT6=
EXTT7=
EXTT8=
EXTT9=
EXTT10=
EXTT11=
PLAYORDER=
